<svg width="1372" height="845" viewBox="0 0 1372 845" fill="none" xmlns="http://www.w3.org/2000/svg">
<path d="M652.705 495.069C437.957 323.856 83.4469 420.348 148.293 339.012C213.14 257.676 395.885 39.7336 610.633 210.946C825.382 382.158 1248.79 236.993 1169.7 285.063C1104.85 366.399 867.453 666.281 652.705 495.069Z" fill="#898989"/>
<path d="M314.218 1028.18C126.225 878.298 -84.0403 962.61 19.5102 832.728C123.061 702.847 444.693 405.783 632.686 555.664C820.679 705.545 1046.83 530.336 1012.42 573.5C908.869 703.382 502.211 1178.06 314.218 1028.18Z" fill="#4F8D61"/>
<path d="M995.328 274.669C628.195 150.075 1112.3 82.9244 1394.25 -71.2336C1429.07 26.7881 741.122 30.5459 1258.81 389.002C1715.67 786.063 899.654 917.141 900.606 824.592C865.788 726.57 1479.07 373.648 995.328 274.669Z" fill="#D7F8DC"/>
</svg>
